<svg width="170" height="50" viewBox="0 0 170 50" fill="none" xmlns="http://www.w3.org/2000/svg">
<path d="M54.455 28.0146V15.3711H57.0529V28.2126C57.0529 29.4002 57.5478 29.8208 58.389 29.8208C59.2303 29.8208 59.7252 29.4002 59.7252 28.2126V15.3711H62.2242V28.0146C62.2242 30.6621 60.8881 32.1962 58.3396 32.1962C55.7911 32.1962 54.455 30.6621 54.455 28.0146Z" fill="white"/>
<path d="M64.0839 15.3711H67.3499L69.8737 25.2929H69.9231V15.3711H72.249V31.9487H69.5768L66.4592 19.8495H66.4097V31.9487H64.0839V15.3711Z" fill="white"/>
<path d="M74.196 15.3711H76.794V31.9487H74.196V15.3711Z" fill="white"/>
<path d="M79.7217 17.3753H77V15H85.0414V17.3753H82.3197V31.5776H79.7217V17.3753Z" fill="white"/>
<path d="M87.3703 15.3711H94.4715V17.7464H89.993V22.1259H93.556V24.5012H89.993V29.5734H94.4715V31.9487H87.3703V15.3711Z" fill="white"/>
<path d="M95.9755 15.3711H99.959C102.557 15.3711 103.844 16.8062 103.844 19.4536V27.8662C103.844 30.5136 102.557 31.9487 99.959 31.9487H95.9755V15.3711ZM99.9096 29.5734C100.726 29.5734 101.221 29.1528 101.221 27.9651V19.3547C101.221 18.167 100.726 17.7464 99.9096 17.7464H98.5735V29.5734H99.9096Z" fill="white"/>
<path d="M109.393 15.3711H111.991V31.9487H109.393V15.3711Z" fill="white"/>
<path d="M115.963 17.7464H113.241V15.3711H121.307V17.7464H118.561V31.9487H115.963V17.7464Z" fill="white"/>
<path d="M126.19 28.114V19.2066C126.19 16.6333 127.502 15.124 130.025 15.124C132.549 15.124 133.861 16.6333 133.861 19.2066V20.9633H131.411V19.0334C131.411 17.9447 130.867 17.4993 130.1 17.4993C129.333 17.4993 128.788 17.9447 128.788 19.0334V28.3119C128.788 29.4006 129.308 29.8212 130.1 29.8212C130.891 29.8212 131.411 29.4006 131.411 28.3119V25.7634H133.861V28.114C133.861 30.6625 132.549 32.1965 130.025 32.1965C127.502 32.1965 126.19 30.6625 126.19 28.114Z" fill="white"/>
<path d="M135.421 15.3711H138.044V29.5734H142.324V31.9487H135.421V15.3711Z" fill="white"/>
<path d="M143.485 28.0146V15.3711H146.083V28.2126C146.083 29.4002 146.578 29.8208 147.42 29.8208C148.261 29.8208 148.756 29.4002 148.756 28.2126V15.3711H151.255V28.0146C151.255 30.6621 149.919 32.1962 147.37 32.1962C144.822 32.1962 143.485 30.6621 143.485 28.0146Z" fill="white"/>
<path d="M153.114 15.3711H157.048C159.745 15.3711 160.908 16.633 160.908 19.1815V19.8495C160.908 21.5568 160.389 22.6207 159.226 23.0908V23.1403C160.611 23.6104 161.156 24.8476 161.156 26.6043V28.0146C161.156 30.5879 159.82 31.9487 157.222 31.9487H153.114V15.3711ZM156.727 22.1259C157.717 22.1259 158.31 21.6805 158.31 20.3691V19.4536C158.31 18.266 157.89 17.7464 156.974 17.7464H155.712V22.1259H156.727ZM157.222 29.5734C158.088 29.5734 158.558 29.1775 158.558 27.9404V26.5053C158.558 24.9713 158.063 24.5012 156.875 24.5012H155.712V29.5734H157.222Z" fill="white"/>
<path d="M162.23 28.015V27.0748H164.68V28.2129C164.68 29.4006 165.2 29.8212 166.041 29.8212C166.882 29.8212 167.377 29.4006 167.377 28.1634C167.377 26.9263 166.857 25.9119 165.15 24.4273C162.973 22.4974 162.255 21.1365 162.255 19.2561C162.255 16.6333 163.616 15.124 166.165 15.124C168.713 15.124 169.95 16.6333 169.95 19.3055V19.9983H167.476V19.1323C167.476 17.9447 167.006 17.4993 166.165 17.4993C165.323 17.4993 164.878 17.9447 164.878 19.0829C164.878 20.221 165.422 21.1613 167.13 22.6706C169.307 24.5757 170 25.9119 170 27.9655C170 30.6625 168.614 32.1965 166.066 32.1965C163.517 32.1965 162.23 30.6625 162.23 28.015Z" fill="white"/>
<path opacity="0.2" d="M39.7387 35.7853V15.6448L22.2951 5.57446L4.82922 15.6448V35.7853L22.2951 45.8556L39.7387 35.7853Z" fill="white"/>
<path d="M19.0766 49.5755L0 38.5798V16.6182L5.3667 19.6887V35.4771L19.0766 43.3948V49.5755ZM1.4326 37.7534L17.644 47.0963V44.2212L3.9341 36.3035V20.5201L1.4326 19.0875V37.7534Z" fill="white"/>
<path d="M35.9837 14.0984L22.301 6.18074L8.59354 14.0984L3.22437 10.9957L22.301 0L41.3529 10.9957L35.9837 14.0984ZM6.09205 10.9957L8.59354 12.4456L22.301 4.52792L35.9837 12.4456L38.4852 10.9957L22.301 1.65281L6.09205 10.9957Z" fill="url(#paint0_linear)"/>
<path d="M25.4852 49.5755V43.3898L39.1927 35.4721V19.6887L44.5619 16.6182V38.5798L25.4852 49.5755ZM26.9178 44.2212V47.0963L43.1293 37.7534V19.0875L40.6253 20.5201V36.3035L26.9178 44.2212Z" fill="white"/>
<path d="M19.0735 45.0451L3.93091 36.2986V18.8574L19.0735 27.604V45.0451ZM5.36351 35.4722L17.6409 42.561V28.4304L5.36351 21.3416V35.4722Z" fill="white"/>
<path d="M22.29 46.7984C22.1642 46.7993 22.0404 46.7669 21.9313 46.7044L17.9972 44.4281C17.8888 44.3646 17.7988 44.2739 17.7363 44.165C17.6738 44.056 17.6409 43.9326 17.6409 43.807V28.4344L4.27979 20.7245C4.17293 20.66 4.08463 20.5688 4.02349 20.46C3.96235 20.3512 3.93045 20.2283 3.93091 20.1035V15.5756C3.93098 15.4496 3.96418 15.326 4.02718 15.2169C4.09018 15.1079 4.18077 15.0174 4.28984 14.9544C4.39891 14.8915 4.52262 14.8584 4.64854 14.8584C4.77447 14.8584 4.89817 14.8916 5.00722 14.9545L22.6488 25.1238C22.7575 25.1871 22.8478 25.2777 22.9107 25.3867C22.9736 25.4956 23.007 25.619 23.0076 25.7448V46.0834C23.0079 46.1776 22.9895 46.2709 22.9536 46.358C22.9176 46.445 22.8647 46.5241 22.798 46.5906C22.7313 46.6571 22.652 46.7097 22.5648 46.7454C22.4776 46.781 22.3842 46.7991 22.29 46.7984ZM19.0735 43.3938L21.575 44.8413V26.158L5.36352 16.8152V19.6903L18.7246 27.4001C18.8333 27.4634 18.9236 27.5541 18.9865 27.663C19.0494 27.7719 19.0828 27.8954 19.0834 28.0212L19.0735 43.3938Z" fill="white"/>
<path d="M22.2986 26.4284C22.1728 26.4293 22.0491 26.3969 21.9399 26.3344L4.29828 16.1404C4.18991 16.0775 4.09995 15.9873 4.03741 15.8788C3.97487 15.7702 3.94196 15.6471 3.94196 15.5218C3.94196 15.3965 3.97487 15.2735 4.03741 15.1649C4.09995 15.0563 4.18991 14.9661 4.29828 14.9033L8.23238 12.6517C8.34117 12.5892 8.46444 12.5563 8.58991 12.5563C8.71538 12.5563 8.83866 12.5892 8.94744 12.6517L22.3085 20.364L35.635 12.6442C35.7437 12.5817 35.867 12.5488 35.9925 12.5488C36.118 12.5488 36.2412 12.5817 36.35 12.6442L40.2841 14.8958C40.3919 14.9592 40.4812 15.0496 40.5433 15.1581C40.6054 15.2666 40.638 15.3894 40.638 15.5144C40.638 15.6394 40.6054 15.7622 40.5433 15.8707C40.4812 15.9792 40.3919 16.0696 40.2841 16.133L22.6673 26.327C22.5559 26.3938 22.4285 26.4288 22.2986 26.4284ZM6.09461 15.5194L22.2986 24.8845L38.4804 15.5194L35.9838 14.0917L22.6574 21.804C22.548 21.866 22.4244 21.8986 22.2986 21.8986C22.1729 21.8986 22.0493 21.866 21.9399 21.804L8.57878 14.0917L6.09461 15.5194Z" fill="white"/>
<path d="M22.2971 46.7988C22.1719 46.8011 22.0486 46.7686 21.9408 46.7048C21.8316 46.642 21.7409 46.5516 21.6779 46.4425C21.6149 46.3335 21.5818 46.2097 21.582 46.0837V25.7452C21.5821 25.6196 21.615 25.4962 21.6775 25.3873C21.74 25.2783 21.8299 25.1876 21.9383 25.1242L39.5552 14.9549C39.664 14.8918 39.7876 14.8585 39.9135 14.8584C40.0393 14.8583 40.163 14.8915 40.2719 14.9545C40.3809 15.0175 40.4713 15.1081 40.5339 15.2172C40.5966 15.3264 40.6294 15.4501 40.629 15.576V20.1039C40.6289 20.2295 40.596 20.3529 40.5335 20.4618C40.471 20.5708 40.3811 20.6615 40.2727 20.7249L26.9116 28.4348V43.8074C26.9119 43.9325 26.8793 44.0554 26.8173 44.1639C26.7552 44.2725 26.6657 44.3628 26.5578 44.426L22.6484 46.7023C22.5415 46.7639 22.4205 46.7971 22.2971 46.7988ZM23.0146 26.1584V44.8367L25.4889 43.3967V28.0216C25.4895 27.8958 25.5229 27.7723 25.5858 27.6634C25.6487 27.5544 25.739 27.4638 25.8477 27.4005L39.2088 19.6907V16.8156L23.0146 26.1584Z" fill="white"/>
<path d="M25.4852 45.0451V27.604L40.6253 18.8574V36.2986L25.4852 45.0451ZM26.9178 28.4304V42.561L39.1927 35.4722V21.3416L26.9178 28.4304Z" fill="white"/>
<defs>
<linearGradient id="paint0_linear" x1="3.22437" y1="7.04921" x2="41.3529" y2="7.04921" gradientUnits="userSpaceOnUse">
<stop stop-color="white"/>
<stop offset="1" stop-color="white"/>
</linearGradient>
</defs>
</svg>
