<svg id="Layer_1" data-name="Layer 1" xmlns="http://www.w3.org/2000/svg" viewBox="0 0 226.77 113.39"><defs><style>.cls-1{fill:#0e7da5;}</style></defs><path class="cls-1" d="M108.51,98.32,73.1,79V40.3L83.51,46V73.19l25,13.62ZM76.33,77.1l29,15.78V88.73l-25-13.62V47.89l-4-2.14Z"/><path class="cls-1" d="M89.06,37,78.52,31.24l35.54-19.39,35.56,19.39L139.08,37l-25-13.64Zm25-17.32,25,13.63,3.78-2.06-28.8-15.7L85.28,31.24l3.78,2.06Z"/><path class="cls-1" d="M119.62,98.32V86.81l25-13.62V46L155,40.31V79Zm3.24-9.59v4.15L151.8,77.1V45.75l-3.94,2.14V75.11Z"/><path class="cls-1" d="M108.51,90.49,80.28,75.11V44.21l28.23,15.4Zm-25-17.3,21.77,11.86V61.53L83.51,49.66Z"/><path class="cls-1" d="M114.06,93.31a1.54,1.54,0,0,1-.78-.2l-7.16-3.92a1.61,1.61,0,0,1-.84-1.42V61.53L81.12,48.35a1.61,1.61,0,0,1-.84-1.42V39.12a1.62,1.62,0,0,1,2.39-1.42l32.16,17.54a1.63,1.63,0,0,1,.85,1.42v35a1.61,1.61,0,0,1-1.62,1.61Zm-5.55-6.5L112.44,89V57.62L83.51,41.84V46l24.16,13.18a1.61,1.61,0,0,1,.84,1.42Z"/><path class="cls-1" d="M114.06,58.21a1.68,1.68,0,0,1-.78-.2L81.12,40.47a1.62,1.62,0,0,1,0-2.84l7.17-3.91a1.64,1.64,0,0,1,1.55,0l24.22,13.22L138.3,33.72a1.64,1.64,0,0,1,1.55,0L147,37.63a1.61,1.61,0,0,1,0,2.84L114.83,58A1.61,1.61,0,0,1,114.06,58.21ZM85.28,39.05l28.78,15.7,28.8-15.7L139.08,37,114.83,50.2a1.64,1.64,0,0,1-1.55,0L89.06,37Z"/><path class="cls-1" d="M114.06,93.31a1.6,1.6,0,0,1-1.62-1.61v-35a1.64,1.64,0,0,1,.84-1.42L145.46,37.7a1.63,1.63,0,0,1,1.6,0,1.6,1.6,0,0,1,.8,1.39v7.81a1.62,1.62,0,0,1-.85,1.42L122.86,61.53V87.77a1.61,1.61,0,0,1-.84,1.42l-7.19,3.92A1.5,1.5,0,0,1,114.06,93.31Zm1.62-35.69V89l3.94-2.16V60.57a1.62,1.62,0,0,1,.85-1.42L144.62,46V41.84Z"/><path class="cls-1" d="M119.62,90.49V59.61l28.24-15.4v30.9Zm3.24-29V85.05l21.76-11.86V49.66Z"/></svg>