<svg width="638" height="719" viewBox="0 0 638 719" fill="none" xmlns="http://www.w3.org/2000/svg">
<g opacity="0.1">
<path opacity="0.09" d="M568.126 521.195V233.484L318.942 89.6289L69.4395 233.484V521.195L318.942 665.05L568.126 521.195Z" fill="white"/>
<path d="M272.953 718.178L0.441406 561.104V247.379L77.1053 291.242V516.781L272.953 629.885V718.178ZM20.9063 549.298L252.488 682.762V641.691L56.6404 528.586V303.118L20.9063 282.653V549.298Z" fill="white"/>
<path d="M503.477 201.397L308.018 88.2925L112.205 201.397L35.5056 157.074L308.018 0L580.176 157.074L503.477 201.397ZM76.4708 157.074L112.205 177.787L308.018 64.6818L503.477 177.787L539.211 157.074L308.018 23.6106L76.4708 157.074Z" fill="url(#paint0_linear)"/>
<path d="M364.49 718.178V629.815L560.303 516.71V291.242L637.002 247.379V561.104L364.49 718.178ZM384.955 641.691V682.762L616.537 549.298V282.653L580.768 303.118V528.586L384.955 641.691Z" fill="white"/>
<path d="M272.918 653.473L56.6055 528.528V279.379L272.918 404.324V653.473ZM77.0704 516.722L252.454 617.987V416.13L77.0704 314.866V516.722Z" fill="white"/>
<path d="M318.867 678.534C317.07 678.547 315.302 678.083 313.742 677.191L257.543 644.674C255.995 643.767 254.71 642.472 253.818 640.915C252.925 639.359 252.454 637.596 252.454 635.802V416.202L61.5892 306.066C60.0628 305.144 58.8014 303.842 57.928 302.287C57.0546 300.732 56.599 298.978 56.6055 297.194V232.512C56.6065 230.714 57.0807 228.947 57.9807 227.389C58.8807 225.832 60.1748 224.539 61.7329 223.64C63.2909 222.74 65.0581 222.267 66.857 222.268C68.6558 222.268 70.4229 222.741 71.9807 223.641L323.992 368.91C325.545 369.814 326.835 371.109 327.734 372.665C328.632 374.221 329.11 375.985 329.118 377.781V668.319C329.122 669.665 328.86 670.999 328.346 672.242C327.832 673.486 327.077 674.616 326.124 675.565C325.17 676.515 324.038 677.267 322.793 677.776C321.547 678.286 320.213 678.544 318.867 678.534ZM272.919 629.899L308.653 650.576V383.684L77.0704 250.22V291.292L267.935 401.427C269.488 402.332 270.777 403.626 271.676 405.182C272.575 406.738 273.052 408.502 273.06 410.299L272.919 629.899Z" fill="white"/>
<path d="M307.973 377.535C306.176 377.547 304.407 377.084 302.848 376.191L50.8357 230.569C49.2875 229.671 48.0024 228.382 47.1091 226.831C46.2157 225.281 45.7455 223.522 45.7455 221.733C45.7455 219.943 46.2157 218.185 47.1091 216.634C48.0024 215.083 49.2875 213.794 50.8357 212.896L107.035 180.732C108.589 179.839 110.35 179.369 112.142 179.369C113.934 179.369 115.695 179.839 117.249 180.732L308.114 290.903L498.484 180.626C500.038 179.733 501.799 179.263 503.591 179.263C505.383 179.263 507.144 179.733 508.698 180.626L564.897 212.79C566.437 213.695 567.713 214.987 568.6 216.536C569.486 218.086 569.953 219.841 569.953 221.627C569.953 223.412 569.486 225.167 568.6 226.717C567.713 228.267 566.437 229.558 564.897 230.463L313.239 376.085C311.648 377.039 309.827 377.54 307.973 377.535ZM76.4964 221.697L307.973 355.479L539.131 221.697L503.467 201.303L313.098 311.474C311.535 312.36 309.769 312.826 307.973 312.826C306.176 312.826 304.41 312.36 302.848 311.474L111.983 201.303L76.4964 221.697Z" fill="white"/>
<path d="M318.959 678.54C317.171 678.572 315.409 678.108 313.869 677.197C312.309 676.3 311.014 675.008 310.114 673.45C309.214 671.892 308.741 670.124 308.744 668.325V377.787C308.745 375.993 309.215 374.23 310.108 372.674C311.001 371.117 312.285 369.822 313.834 368.915L565.492 223.646C567.047 222.744 568.813 222.269 570.611 222.268C572.409 222.266 574.175 222.74 575.731 223.64C577.288 224.54 578.579 225.835 579.474 227.394C580.37 228.953 580.838 230.72 580.832 232.518V297.2C580.831 298.994 580.361 300.757 579.468 302.313C578.575 303.869 577.291 305.165 575.742 306.072L384.878 416.207V635.807C384.882 637.594 384.417 639.35 383.53 640.9C382.643 642.451 381.365 643.741 379.824 644.644L323.978 677.161C322.45 678.041 320.722 678.515 318.959 678.54ZM329.209 383.69V650.511L364.554 629.94V410.305C364.562 408.508 365.039 406.744 365.938 405.188C366.837 403.632 368.127 402.338 369.679 401.433L560.544 291.297V250.226L329.209 383.69Z" fill="white"/>
<path d="M364.49 653.473V404.324L580.768 279.379V528.528L364.49 653.473ZM384.955 416.13V617.987L560.303 516.722V314.866L384.955 416.13Z" fill="white"/>
</g>
<defs>
<linearGradient id="paint0_linear" x1="35.5056" y1="100.699" x2="580.176" y2="100.699" gradientUnits="userSpaceOnUse">
<stop stop-color="white"/>
<stop offset="1" stop-color="white"/>
</linearGradient>
</defs>
</svg>
