<svg id="Layer_1" data-name="Layer 1" xmlns="http://www.w3.org/2000/svg" viewBox="0 0 226.77 113.39"><defs><style>.cls-1{fill:#fff;}</style></defs><path class="cls-1" d="M111.75,101.72,76.33,82.42V43.7l10.42,5.67V76.59l25,13.62ZM79.57,80.5l28.94,15.77V92.13l-25-13.62V51.29l-3.94-2.15Z"/><path class="cls-1" d="M92.3,40.38,81.75,34.64l35.54-19.39,35.56,19.39-10.54,5.74-25-13.63Zm25-17.32,25,13.64,3.78-2.06-28.8-15.71L88.51,34.64,92.3,36.7Z"/><path class="cls-1" d="M122.86,101.72V90.21l25-13.62V49.37l10.41-5.67V82.42Zm3.23-9.59v4.14L155,80.5V49.14l-3.95,2.15V78.51Z"/><path class="cls-1" d="M111.75,93.89,83.51,78.51V47.6L111.75,63Zm-25-17.3,21.76,11.86V64.93L86.75,53.05Z"/><path class="cls-1" d="M117.29,96.71a1.64,1.64,0,0,1-.77-.2l-7.17-3.92a1.64,1.64,0,0,1-.84-1.42V64.93L84.36,51.75a1.62,1.62,0,0,1-.85-1.42V42.52a1.63,1.63,0,0,1,.8-1.39,1.6,1.6,0,0,1,1.6,0l32.16,17.54a1.61,1.61,0,0,1,.84,1.42v35a1.62,1.62,0,0,1-.79,1.39A1.55,1.55,0,0,1,117.29,96.71Zm-5.54-6.5,3.93,2.15V61L86.75,45.24v4.13L110.9,62.55a1.61,1.61,0,0,1,.85,1.42Z"/><path class="cls-1" d="M117.29,61.61a1.64,1.64,0,0,1-.77-.2L84.36,43.87a1.61,1.61,0,0,1,0-2.84l7.16-3.91a1.64,1.64,0,0,1,1.55,0l24.22,13.22,24.25-13.22a1.62,1.62,0,0,1,1.54,0L150.25,41a1.62,1.62,0,0,1,0,2.84L118.07,61.41A1.65,1.65,0,0,1,117.29,61.61ZM88.51,42.45l28.78,15.7,28.8-15.7-3.78-2.07L118.07,53.6a1.64,1.64,0,0,1-1.55,0L92.3,40.38Z"/><path class="cls-1" d="M117.29,96.71a1.62,1.62,0,0,1-1.61-1.62v-35a1.61,1.61,0,0,1,.84-1.42L148.7,41.1a1.62,1.62,0,0,1,2.39,1.42v7.81a1.61,1.61,0,0,1-.84,1.42L126.09,64.93V91.17a1.62,1.62,0,0,1-.84,1.42l-7.18,3.92A1.65,1.65,0,0,1,117.29,96.71ZM118.91,61V92.37l4-2.16V64a1.6,1.6,0,0,1,.84-1.42l24.16-13.18V45.24Z"/><path class="cls-1" d="M122.86,93.89V63L151.09,47.6V78.51Zm3.23-29V88.45l21.77-11.86V53.05Z"/></svg>